<svg width="89" height="86" viewBox="0 0 89 86" fill="none" xmlns="http://www.w3.org/2000/svg">
<ellipse cx="3.66548" cy="46.5782" rx="1.99778" ry="3.36461" transform="rotate(100.211 3.66548 46.5782)" fill="black"/>
<ellipse cx="9.65437" cy="37.1448" rx="1.99778" ry="4.0321" transform="rotate(121.14 9.65437 37.1448)" fill="black"/>
<ellipse cx="19.2637" cy="60.9131" rx="1.99778" ry="4.0321" transform="rotate(121.14 19.2637 60.9131)" fill="black"/>
<ellipse cx="45.4385" cy="62.7668" rx="1.99778" ry="4.0321" transform="rotate(121.14 45.4385 62.7668)" fill="black"/>
<ellipse cx="60.3262" cy="82.2048" rx="1.99778" ry="4.0321" transform="rotate(121.14 60.3262 82.2048)" fill="black"/>
<path d="M16.9899 24.3709C15.0839 23.2193 14.587 19.8585 15.1576 18.9141C15.7282 17.9697 17.7358 18.1377 19.6418 19.2893C21.5478 20.4409 26.1742 28.484 25.6037 29.4283C25.0331 30.3727 18.8959 25.5225 16.9899 24.3709Z" fill="black"/>
<path d="M24.5505 49.9554C22.6445 48.8038 22.1476 45.4429 22.7181 44.4986C23.2887 43.5542 25.2964 43.7222 27.2024 44.8738C29.1083 46.0254 33.7348 54.0684 33.1642 55.0128C32.5936 55.9572 26.4565 51.107 24.5505 49.9554Z" fill="black"/>
<path d="M52.7722 51.9947C50.8662 50.8431 50.3692 47.4822 50.9398 46.5379C51.5104 45.5935 53.5181 45.7615 55.424 46.9131C57.33 48.0647 61.9565 56.1078 61.3859 57.0521C60.8153 57.9965 54.6781 53.1463 52.7722 51.9947Z" fill="black"/>
<path d="M67.6608 69.4327C65.7548 68.2811 65.2579 64.9202 65.8285 63.9759C66.3991 63.0315 68.4067 63.1995 70.3127 64.3511C72.2187 65.5027 76.8451 73.5457 76.2746 74.4901C75.704 75.4345 69.5668 70.5843 67.6608 69.4327Z" fill="black"/>
<path d="M30.1882 11.2839C28.9066 10.5096 28.5724 8.24966 28.9561 7.61466C29.3398 6.97966 30.6897 7.09263 31.9713 7.86698C33.253 8.64133 36.3638 14.0496 35.9802 14.6846C35.5965 15.3196 31.4698 12.0583 30.1882 11.2839Z" fill="black"/>
<path d="M37.7487 38.8718C36.4671 38.0975 36.133 35.8375 36.5166 35.2026C36.9003 34.5676 38.2503 34.6805 39.5319 35.4549C40.8135 36.2292 43.9244 41.6375 43.5407 42.2725C43.1571 42.9075 39.0303 39.6462 37.7487 38.8718Z" fill="black"/>
<path d="M65.9724 38.9092C64.6908 38.1348 64.3566 35.8749 64.7403 35.2399C65.1239 34.6049 66.4739 34.7179 67.7555 35.4922C69.0371 36.2666 72.148 41.6748 71.7644 42.3098C71.3807 42.9448 67.254 39.6835 65.9724 38.9092Z" fill="black"/>
<path d="M80.8601 58.344C79.5784 57.5696 79.2443 55.3097 79.628 54.6747C80.0116 54.0397 81.3616 54.1527 82.6432 54.927C83.9248 55.7014 87.0357 61.1096 86.652 61.7446C86.2684 62.3796 82.1417 59.1183 80.8601 58.344Z" fill="black"/>
<path d="M42.3429 4.61276C40.9318 4.11175 40.1504 1.96509 40.3986 1.26595C40.6468 0.566803 41.992 0.406181 43.4031 0.907189C44.8141 1.4082 48.9484 6.08097 48.7001 6.78012C48.4519 7.47926 43.754 5.11377 42.3429 4.61276Z" fill="black"/>
<path d="M55.1017 29.4919C53.6906 28.9909 52.9092 26.8442 53.1574 26.1451C53.4056 25.446 54.7508 25.2853 56.1618 25.7863C57.5729 26.2873 61.7072 30.9601 61.4589 31.6593C61.2107 32.3584 56.5128 29.9929 55.1017 29.4919Z" fill="black"/>
</svg>
