<svg width="45" height="54" viewBox="0 0 45 54" fill="none" xmlns="http://www.w3.org/2000/svg">
<circle cx="22.7066" cy="31.5145" r="21.9888" fill="#23254B"/>
<mask id="mask0_2_229" style="mask-type:alpha" maskUnits="userSpaceOnUse" x="0" y="9" width="45" height="45">
<circle cx="22.7066" cy="31.5145" r="21.9888" fill="#23254B"/>
</mask>
<g mask="url(#mask0_2_229)">
<rect x="7.97778" y="1.80176" width="29.4574" height="54.9515" rx="3.25" fill="#FFF5EF" stroke="#161C3E" stroke-width="1.5"/>
</g>
<path d="M34.1824 1.05176H11.2378C9.02865 1.05176 7.23779 2.84262 7.23779 5.05176V28.7691C7.23779 30.9783 9.02865 32.7691 11.2378 32.7691H34.1824C36.3916 32.7691 38.1824 30.9783 38.1824 28.7692V5.05176C38.1824 2.84262 36.3916 1.05176 34.1824 1.05176Z" fill="#C6CAD9"/>
<path d="M37.4311 32.7691V5.05176C37.4311 2.84262 35.6402 1.05176 33.4311 1.05176H11.9836C9.7745 1.05176 7.98364 2.84262 7.98364 5.05176V32.7691" stroke="#161C3E" stroke-width="1.5"/>
<rect x="12.9248" y="9.02393" width="19.5706" height="6.19434" rx="1" fill="#F9F9F9"/>
<rect x="12.9248" y="17.5999" width="19.5706" height="2.2835" rx="1" fill="#F9F9F9"/>
<rect x="12.9248" y="21.5247" width="19.5706" height="2.2835" rx="1" fill="#F9F9F9"/>
<rect x="12.9248" y="27.5024" width="9.30791" height="1.57665" rx="0.788325" fill="#F9F9F9"/>
<rect x="12.9248" y="30.3916" width="21.7212" height="1.57665" rx="0.788325" fill="#F9F9F9"/>
</svg>
