<svg width="45" height="54" viewBox="0 0 45 54" fill="none" xmlns="http://www.w3.org/2000/svg">
<circle cx="22.7964" cy="31.4627" r="21.9888" fill="#FE9E66"/>
<mask id="mask0_2_278" style="mask-type:alpha" maskUnits="userSpaceOnUse" x="0" y="9" width="45" height="45">
<circle cx="22.7964" cy="31.4627" r="21.9888" fill="#23254B"/>
</mask>
<g mask="url(#mask0_2_278)">
<rect x="8.06763" y="1.75" width="29.4574" height="54.9515" rx="3.25" fill="white" stroke="#9EA8DC" stroke-width="1.5"/>
</g>
<path d="M34.2723 1H11.3276C9.1185 1 7.32764 2.79086 7.32764 5V28.7174C7.32764 30.9265 9.1185 32.7174 11.3276 32.7174H34.2723C36.4814 32.7174 38.2723 30.9265 38.2723 28.7174V5C38.2723 2.79086 36.4814 1 34.2723 1Z" fill="#C6CAD9"/>
<path d="M37.5209 32.7174V5C37.5209 2.79086 35.73 1 33.5209 1H12.0735C9.86435 1 8.07349 2.79086 8.07349 5V32.7174" stroke="#161C3E" stroke-width="1.5"/>
<rect x="13.0146" y="8.97217" width="19.5706" height="6.19434" rx="1" fill="#F9F9F9"/>
<rect x="13.0146" y="17.5481" width="19.5706" height="2.2835" rx="1" fill="#F9F9F9"/>
<rect x="13.0146" y="21.4729" width="19.5706" height="2.2835" rx="1" fill="#F9F9F9"/>
</svg>
