<svg width="128" height="131" viewBox="0 0 128 131" fill="none" xmlns="http://www.w3.org/2000/svg">
<g filter="url(#filter0_d_2_423)">
<circle cx="66" cy="62" r="28" fill="#FAFAFA"/>
</g>
<g filter="url(#filter1_d_2_423)">
<path d="M64.5 93C56.4109 93 48.6531 89.6813 42.9332 83.7739C37.2134 77.8665 34 69.8543 34 61.5C34 53.1457 37.2134 45.1335 42.9332 39.2261C48.6531 33.3187 56.4109 30 64.5 30V34.4783C57.5609 34.4783 50.906 37.3252 45.9994 42.3928C41.0927 47.4603 38.3361 54.3334 38.3361 61.5C38.3361 68.6666 41.0927 75.5397 45.9994 80.6072C50.906 85.6748 57.5609 88.5217 64.5 88.5217V93Z" fill="#FE9E66"/>
</g>
<path d="M70.9151 62.5471L62.7216 67.1585L62.8247 57.7571L70.9151 62.5471Z" fill="#3C3C3E"/>
<defs>
<filter id="filter0_d_2_423" x="4" y="4" width="124" height="124" filterUnits="userSpaceOnUse" color-interpolation-filters="sRGB">
<feFlood flood-opacity="0" result="BackgroundImageFix"/>
<feColorMatrix in="SourceAlpha" type="matrix" values="0 0 0 0 0 0 0 0 0 0 0 0 0 0 0 0 0 0 127 0" result="hardAlpha"/>
<feOffset dy="4"/>
<feGaussianBlur stdDeviation="17"/>
<feComposite in2="hardAlpha" operator="out"/>
<feColorMatrix type="matrix" values="0 0 0 0 0.516667 0 0 0 0 0.516667 0 0 0 0 0.516667 0 0 0 0.25 0"/>
<feBlend mode="normal" in2="BackgroundImageFix" result="effect1_dropShadow_2_423"/>
<feBlend mode="normal" in="SourceGraphic" in2="effect1_dropShadow_2_423" result="shape"/>
</filter>
<filter id="filter1_d_2_423" x="0" y="0" width="98.5" height="131" filterUnits="userSpaceOnUse" color-interpolation-filters="sRGB">
<feFlood flood-opacity="0" result="BackgroundImageFix"/>
<feColorMatrix in="SourceAlpha" type="matrix" values="0 0 0 0 0 0 0 0 0 0 0 0 0 0 0 0 0 0 127 0" result="hardAlpha"/>
<feOffset dy="4"/>
<feGaussianBlur stdDeviation="17"/>
<feComposite in2="hardAlpha" operator="out"/>
<feColorMatrix type="matrix" values="0 0 0 0 0.516667 0 0 0 0 0.516667 0 0 0 0 0.516667 0 0 0 0.25 0"/>
<feBlend mode="normal" in2="BackgroundImageFix" result="effect1_dropShadow_2_423"/>
<feBlend mode="normal" in="SourceGraphic" in2="effect1_dropShadow_2_423" result="shape"/>
</filter>
</defs>
</svg>
